<svg aria-hidden="true" style="position: absolute; width: 0; height: 0; overflow: hidden;" version="1.1" xmlns="http://www.w3.org/2000/svg" xmlns:xlink="http://www.w3.org/1999/xlink">
<defs>
<symbol id="icon-aver" viewBox="0 0 49 32">
<path fill="#bfdbcc" style="fill: var(--color1, #bfdbcc)" d="M2.122 30.874l-0.503-4.484 0.579-0.334 3.632 2.678-0.66 0.381-0.856-0.65-1.681 0.971 0.13 1.070-0.64 0.369zM2.541 28.75l1.224-0.707-1.436-1.067 0.212 1.774zM7.121 28.022l-3.546-2.728 0.691-0.399 2.649 2.114-0.511-3.349 0.676-0.39 0.589 4.434-0.549 0.317zM9.743 26.474l-2.053-3.556 2.636-1.522 0.323 0.559-2.011 1.161 0.534 0.924 1.783-1.029 0.323 0.559-1.783 1.029 0.551 0.955 2.037-1.176 0.323 0.559-2.662 1.537zM13.146 24.51l-2.053-3.556 1.585-0.915c0.413-0.239 0.796-0.322 1.149-0.25 0.351 0.068 0.626 0.275 0.826 0.62 0.162 0.281 0.22 0.557 0.173 0.828-0.049 0.267-0.182 0.514-0.4 0.739l1.737 0.792-0.736 0.425-1.599-0.729-0.772 0.446 0.716 1.239-0.625 0.361zM12.735 22.356l0.914-0.528c0.223-0.129 0.37-0.286 0.439-0.47s0.050-0.37-0.057-0.556c-0.11-0.19-0.258-0.298-0.445-0.325s-0.398 0.027-0.631 0.161l-0.909 0.525 0.689 1.194zM16.511 22.566l-0.503-4.484 0.579-0.334 3.632 2.678-0.66 0.381-0.856-0.65-1.681 0.971 0.13 1.070-0.64 0.37zM16.93 20.442l1.224-0.707-1.436-1.067 0.212 1.774zM22.332 19.287c-0.549 0.317-1.094 0.401-1.635 0.253-0.54-0.153-0.963-0.496-1.27-1.027-0.293-0.508-0.371-1.041-0.233-1.599 0.142-0.56 0.476-0.993 1.005-1.298 0.298-0.172 0.575-0.278 0.832-0.318 0.255-0.043 0.526-0.039 0.813 0.012l-0.123 0.701c-0.223-0.043-0.429-0.050-0.616-0.023-0.186 0.022-0.386 0.094-0.599 0.217-0.325 0.188-0.528 0.47-0.609 0.846-0.077 0.374-0.015 0.736 0.186 1.085 0.213 0.369 0.501 0.609 0.863 0.721 0.36 0.108 0.72 0.058 1.079-0.149 0.332-0.192 0.566-0.447 0.703-0.765l-0.384-0.665-0.909 0.525-0.314-0.543 1.514-0.874 0.862 1.493c-0.217 0.617-0.605 1.087-1.164 1.41zM24.594 17.9l-2.053-3.556 2.636-1.522 0.323 0.559-2.011 1.161 0.534 0.924 1.783-1.029 0.323 0.559-1.783 1.029 0.551 0.955 2.037-1.176 0.323 0.559-2.662 1.537zM29.68 15.918c-1.235 0.027-2.122-0.427-2.662-1.362s-0.489-1.93 0.152-2.986l0.507 0.256c-0.227 0.452-0.346 0.868-0.356 1.248-0.007 0.379 0.097 0.754 0.312 1.127s0.488 0.65 0.82 0.834c0.335 0.181 0.755 0.287 1.259 0.316l-0.032 0.567zM30.234 14.644l-2.053-3.556 1.595-0.921c0.41-0.237 0.78-0.31 1.111-0.222 0.251 0.067 0.446 0.221 0.585 0.462 0.203 0.352 0.186 0.714-0.050 1.086 0.563-0.113 0.966 0.043 1.21 0.466 0.18 0.312 0.2 0.62 0.061 0.927s-0.41 0.576-0.813 0.808l-1.646 0.95zM29.661 12.232l0.853-0.493c0.207-0.119 0.346-0.254 0.417-0.403 0.073-0.155 0.063-0.314-0.031-0.476-0.082-0.142-0.2-0.221-0.353-0.236-0.155-0.019-0.333 0.030-0.533 0.145l-0.899 0.519 0.545 0.945zM30.529 13.735l1.036-0.598c0.217-0.125 0.36-0.264 0.43-0.417 0.073-0.155 0.063-0.314-0.031-0.476-0.184-0.318-0.519-0.337-1.007-0.055l-0.99 0.572 0.563 0.975zM33.691 12.648l-0.284-0.493 0.623-1.748c0.129-0.355 0.202-0.627 0.219-0.817 0.018-0.196-0.018-0.371-0.108-0.527-0.098-0.169-0.229-0.272-0.394-0.307-0.167-0.039-0.334-0.011-0.499 0.085-0.156 0.090-0.272 0.213-0.348 0.37-0.073 0.155-0.129 0.368-0.167 0.638l-0.641-0.090c0.034-0.363 0.114-0.659 0.238-0.889 0.126-0.235 0.34-0.44 0.641-0.614 0.349-0.201 0.688-0.266 1.018-0.195s0.588 0.268 0.774 0.589c0.080 0.139 0.136 0.274 0.166 0.405 0.029 0.128 0.032 0.275 0.011 0.441-0.020 0.161-0.054 0.318-0.1 0.471-0.045 0.148-0.114 0.346-0.206 0.593l-0.38 1.032 1.691-0.977 0.317 0.549-2.57 1.484zM37.582 9.683l-0.56-0.97-0.975 0.563-0.323-0.559 0.975-0.563-0.56-0.97 0.579-0.334 0.56 0.97 0.975-0.563 0.323 0.559-0.975 0.563 0.56 0.97-0.579 0.334zM40.263 8.853l-2.053-3.556 1.326-0.765c0.555-0.321 1.107-0.413 1.654-0.278 0.546 0.132 0.966 0.454 1.261 0.965 0.293 0.508 0.36 1.034 0.2 1.578-0.157 0.542-0.511 0.972-1.063 1.291l-1.326 0.765zM40.56 7.924l0.701-0.405c0.369-0.213 0.603-0.497 0.7-0.851 0.096-0.358 0.041-0.715-0.164-1.070-0.203-0.352-0.484-0.576-0.842-0.672s-0.721-0.037-1.090 0.176l-0.701 0.405 1.396 2.418zM44.028 6.68l-0.284-0.493 0.623-1.748c0.129-0.355 0.202-0.627 0.219-0.817 0.018-0.196-0.018-0.371-0.108-0.527-0.098-0.169-0.229-0.272-0.394-0.307-0.167-0.039-0.334-0.011-0.499 0.085-0.156 0.090-0.272 0.213-0.348 0.37-0.073 0.155-0.129 0.368-0.167 0.638l-0.641-0.090c0.034-0.363 0.114-0.659 0.238-0.889 0.126-0.235 0.34-0.44 0.641-0.614 0.349-0.201 0.688-0.266 1.018-0.195s0.588 0.268 0.774 0.589c0.080 0.139 0.136 0.274 0.166 0.405 0.029 0.128 0.032 0.275 0.011 0.441-0.020 0.161-0.054 0.318-0.1 0.471-0.045 0.148-0.114 0.346-0.206 0.593l-0.38 1.032 1.691-0.977 0.317 0.549-2.57 1.484zM47.821 5.445l-0.507-0.256c0.227-0.452 0.344-0.867 0.351-1.246 0.010-0.381-0.092-0.757-0.307-1.13s-0.49-0.649-0.825-0.831c-0.332-0.183-0.75-0.29-1.254-0.319l0.032-0.567c1.237-0.023 2.124 0.43 2.662 1.362s0.487 1.927-0.152 2.986z"></path>
</symbol>
<symbol id="icon-average" viewBox="0 0 49 32">
<path fill="#bfdbcc" style="fill: var(--color1, #bfdbcc)" d="M2.122 30.874l-0.503-4.484 0.579-0.334 3.632 2.678-0.66 0.381-0.856-0.65-1.681 0.971 0.13 1.070-0.64 0.369zM2.541 28.75l1.224-0.707-1.436-1.067 0.212 1.774zM7.121 28.022l-3.546-2.728 0.691-0.399 2.649 2.114-0.511-3.349 0.676-0.39 0.589 4.434-0.549 0.317zM9.743 26.474l-2.053-3.556 2.636-1.522 0.323 0.559-2.011 1.161 0.534 0.924 1.783-1.029 0.323 0.559-1.783 1.029 0.551 0.955 2.037-1.176 0.323 0.559-2.662 1.537zM13.146 24.51l-2.053-3.556 1.585-0.915c0.413-0.239 0.796-0.322 1.149-0.25 0.351 0.068 0.626 0.275 0.826 0.62 0.162 0.281 0.22 0.557 0.173 0.828-0.049 0.267-0.182 0.514-0.4 0.739l1.737 0.792-0.736 0.425-1.599-0.729-0.772 0.446 0.716 1.239-0.625 0.361zM12.735 22.356l0.914-0.528c0.223-0.129 0.37-0.286 0.439-0.47s0.050-0.37-0.057-0.556c-0.11-0.19-0.258-0.298-0.445-0.325s-0.398 0.027-0.631 0.161l-0.909 0.525 0.689 1.194zM16.511 22.566l-0.503-4.484 0.579-0.334 3.632 2.678-0.66 0.381-0.856-0.65-1.681 0.971 0.13 1.070-0.64 0.37zM16.93 20.442l1.224-0.707-1.436-1.067 0.212 1.774zM22.332 19.287c-0.549 0.317-1.094 0.401-1.635 0.253-0.54-0.153-0.963-0.496-1.27-1.027-0.293-0.508-0.371-1.041-0.233-1.599 0.142-0.56 0.476-0.993 1.005-1.298 0.298-0.172 0.575-0.278 0.832-0.318 0.255-0.043 0.526-0.039 0.813 0.012l-0.123 0.701c-0.223-0.043-0.429-0.050-0.616-0.023-0.186 0.022-0.386 0.094-0.599 0.217-0.325 0.188-0.528 0.47-0.609 0.846-0.077 0.374-0.015 0.736 0.186 1.085 0.213 0.369 0.501 0.609 0.863 0.721 0.36 0.108 0.72 0.058 1.079-0.149 0.332-0.192 0.566-0.447 0.703-0.765l-0.384-0.665-0.909 0.525-0.314-0.543 1.514-0.874 0.862 1.493c-0.217 0.617-0.605 1.087-1.164 1.41zM24.594 17.9l-2.053-3.556 2.636-1.522 0.323 0.559-2.011 1.161 0.534 0.924 1.783-1.029 0.323 0.559-1.783 1.029 0.551 0.955 2.037-1.176 0.323 0.559-2.662 1.537zM29.68 15.918c-1.235 0.027-2.122-0.427-2.662-1.362s-0.489-1.93 0.152-2.986l0.507 0.256c-0.227 0.452-0.346 0.868-0.356 1.248-0.007 0.379 0.097 0.754 0.312 1.127s0.488 0.65 0.82 0.834c0.335 0.181 0.755 0.287 1.259 0.316l-0.032 0.567zM30.234 14.644l-2.053-3.556 1.595-0.921c0.41-0.237 0.78-0.31 1.111-0.222 0.251 0.067 0.446 0.221 0.585 0.462 0.203 0.352 0.186 0.714-0.050 1.086 0.563-0.113 0.966 0.043 1.21 0.466 0.18 0.312 0.2 0.62 0.061 0.927s-0.41 0.576-0.813 0.808l-1.646 0.95zM29.661 12.232l0.853-0.493c0.207-0.119 0.346-0.254 0.417-0.403 0.073-0.155 0.063-0.314-0.031-0.476-0.082-0.142-0.2-0.221-0.353-0.236-0.155-0.019-0.333 0.030-0.533 0.145l-0.899 0.519 0.545 0.945zM30.529 13.735l1.036-0.598c0.217-0.125 0.36-0.264 0.43-0.417 0.073-0.155 0.063-0.314-0.031-0.476-0.184-0.318-0.519-0.337-1.007-0.055l-0.99 0.572 0.563 0.975zM33.691 12.648l-0.284-0.493 0.623-1.748c0.129-0.355 0.202-0.627 0.219-0.817 0.018-0.196-0.018-0.371-0.108-0.527-0.098-0.169-0.229-0.272-0.394-0.307-0.167-0.039-0.334-0.011-0.499 0.085-0.156 0.090-0.272 0.213-0.348 0.37-0.073 0.155-0.129 0.368-0.167 0.638l-0.641-0.090c0.034-0.363 0.114-0.659 0.238-0.889 0.126-0.235 0.34-0.44 0.641-0.614 0.349-0.201 0.688-0.266 1.018-0.195s0.588 0.268 0.774 0.589c0.080 0.139 0.136 0.274 0.166 0.405 0.029 0.128 0.032 0.275 0.011 0.441-0.020 0.161-0.054 0.318-0.1 0.471-0.045 0.148-0.114 0.346-0.206 0.593l-0.38 1.032 1.691-0.977 0.317 0.549-2.57 1.484zM37.582 9.683l-0.56-0.97-0.975 0.563-0.323-0.559 0.975-0.563-0.56-0.97 0.579-0.334 0.56 0.97 0.975-0.563 0.323 0.559-0.975 0.563 0.56 0.97-0.579 0.334zM40.263 8.853l-2.053-3.556 1.326-0.765c0.555-0.321 1.107-0.413 1.654-0.278 0.546 0.132 0.966 0.454 1.261 0.965 0.293 0.508 0.36 1.034 0.2 1.578-0.157 0.542-0.511 0.972-1.063 1.291l-1.326 0.765zM40.56 7.924l0.701-0.405c0.369-0.213 0.603-0.497 0.7-0.851 0.096-0.358 0.041-0.715-0.164-1.070-0.203-0.352-0.484-0.576-0.842-0.672s-0.721-0.037-1.090 0.176l-0.701 0.405 1.396 2.418zM44.028 6.68l-0.284-0.493 0.623-1.748c0.129-0.355 0.202-0.627 0.219-0.817 0.018-0.196-0.018-0.371-0.108-0.527-0.098-0.169-0.229-0.272-0.394-0.307-0.167-0.039-0.334-0.011-0.499 0.085-0.156 0.090-0.272 0.213-0.348 0.37-0.073 0.155-0.129 0.368-0.167 0.638l-0.641-0.090c0.034-0.363 0.114-0.659 0.238-0.889 0.126-0.235 0.34-0.44 0.641-0.614 0.349-0.201 0.688-0.266 1.018-0.195s0.588 0.268 0.774 0.589c0.080 0.139 0.136 0.274 0.166 0.405 0.029 0.128 0.032 0.275 0.011 0.441-0.020 0.161-0.054 0.318-0.1 0.471-0.045 0.148-0.114 0.346-0.206 0.593l-0.38 1.032 1.691-0.977 0.317 0.549-2.57 1.484zM47.821 5.445l-0.507-0.256c0.227-0.452 0.344-0.867 0.351-1.246 0.010-0.381-0.092-0.757-0.307-1.13s-0.49-0.649-0.825-0.831c-0.332-0.183-0.75-0.29-1.254-0.319l0.032-0.567c1.237-0.023 2.124 0.43 2.662 1.362s0.487 1.927-0.152 2.986z"></path>
</symbol>
<symbol id="icon-checkpoint" viewBox="0 0 32 32">
<path fill="none" stroke="#0f7c41" style="stroke: var(--color2, #0f7c41)" stroke-linejoin="miter" stroke-linecap="butt" stroke-miterlimit="4" stroke-width="2" d="M1 1h30v30h-30v-30z"></path>
<path fill="none" stroke="#0f7c41" style="stroke: var(--color2, #0f7c41)" stroke-linejoin="miter" stroke-linecap="butt" stroke-miterlimit="4" stroke-width="4" d="M7.277 14.301l6.11 6.175 10.998-10.667"></path>
</symbol>
<symbol id="icon-close" viewBox="0 0 32 32">
<path d="M24.707 8.707c0.39-0.391 0.39-1.024 0-1.414s-1.024-0.391-1.414 0l-7.293 7.293-7.293-7.293c-0.391-0.391-1.024-0.391-1.414 0s-0.391 1.024 0 1.414l7.293 7.293-7.293 7.293c-0.391 0.39-0.391 1.024 0 1.414s1.024 0.39 1.414 0l7.293-7.293 7.293 7.293c0.39 0.39 1.024 0.39 1.414 0s0.39-1.024 0-1.414l-7.293-7.293 7.293-7.293z"></path>
</symbol>
<symbol id="icon-flag" viewBox="0 0 50 32">
<path fill="#ffd500" style="fill: var(--color3, #ffd500)" d="M48 32h-48v-16h48v16z"></path>
<path fill="#005bbb" style="fill: var(--color4, #005bbb)" d="M48 15.999h-48v-16h48v16z"></path>
</symbol>
<symbol id="icon-func" viewBox="0 0 68 32">
<path fill="#bfdbcc" style="fill: var(--color1, #bfdbcc)" d="M0.778 7.188l2.187-3.568-0.612-0.181 0.537-0.875 0.612 0.181 0.208-0.366c0.527-0.931 1.287-1.25 2.28-0.957 0.372 0.11 0.672 0.258 0.902 0.445l-0.52 0.85c-0.203-0.166-0.414-0.281-0.633-0.346-0.408-0.121-0.74 0.027-0.995 0.442l-0.154 0.253 1.335 0.394-0.537 0.875-1.316-0.389-2.187 3.568-1.106-0.327zM6.012 10.145c-0.835-1.234-1.068-2.476-0.699-3.725 0.29-0.981 0.864-1.782 1.723-2.403 0.867-0.625 1.952-1 3.255-1.126l0.159 0.942c-1.077 0.146-1.957 0.479-2.641 0.999s-1.135 1.149-1.352 1.887c-0.259 0.878-0.114 1.855 0.436 2.932l-0.882 0.495zM7.725 9.24l3.202-1.788-0.432-2.642 1.188 0.351 0.229 1.747 1.882-1.124 1.335 0.394-3.056 1.731 0.433 2.742-1.188-0.351-0.236-1.859-2.013 1.195-1.344-0.397zM12.864 12.139l-0.159-0.942c1.077-0.146 1.957-0.479 2.641-0.999s1.134-1.149 1.352-1.886c0.261-0.884 0.112-1.859-0.448-2.925l0.894-0.501c0.835 1.234 1.068 2.475 0.699 3.725-0.29 0.981-0.868 1.784-1.735 2.41-0.861 0.627-1.942 1-3.243 1.119zM22.441 9.402l0.577-0.943 4.278 1.264-0.577 0.943-4.278-1.264zM21.154 11.507l0.577-0.943 4.278 1.264-0.577 0.943-4.278-1.264zM28.887 15.49l3.609-5.891 1.143 0.338 0.222 3.355 3.636-2.216 1.289 0.381-3.609 5.891-1.143-0.337 2.59-4.225-3.707 2.185-0.037-0.011-0.294-3.347-2.575 4.209-1.124-0.332zM36.887 17.853l3.609-5.891 1.134 0.335-3.609 5.891-1.134-0.335zM39.724 18.691l3.609-5.891 1.042 0.308 0.83 5.165 2.562-4.163 1.106 0.327-3.609 5.891-0.942-0.278-0.865-5.315-2.618 4.286-1.115-0.329zM48.648 22.738c-0.835-1.234-1.068-2.476-0.699-3.725 0.29-0.981 0.864-1.782 1.724-2.403 0.867-0.625 1.952-1 3.255-1.126l0.159 0.942c-1.077 0.146-1.957 0.479-2.641 0.999s-1.135 1.149-1.352 1.887c-0.259 0.878-0.114 1.855 0.436 2.932l-0.882 0.495zM50.937 22.003l3.609-5.891 4.699 1.388-0.571 0.925-3.574-1.056-0.942 1.541 3.172 0.937-0.569 0.915-3.172-0.937-0.965 1.584 3.629 1.072-0.571 0.925-4.744-1.401zM56.551 23.661l0.517-0.841 4.133-1.443c0.413-0.143 0.73-0.295 0.949-0.455s0.363-0.353 0.429-0.579c0.072-0.244 0.040-0.462-0.095-0.654-0.129-0.191-0.343-0.33-0.642-0.418-0.524-0.155-1.145-0.037-1.864 0.354l-0.491-0.93c0.91-0.546 1.81-0.688 2.7-0.425 0.622 0.184 1.078 0.491 1.368 0.921 0.292 0.424 0.364 0.886 0.217 1.386-0.113 0.384-0.327 0.702-0.64 0.954s-0.79 0.489-1.432 0.71l-2.884 1.017 2.989 0.883-0.557 0.909-4.699-1.388zM64.458 22.11l0.708-1.152 1.216 0.359-0.708 1.152-1.216-0.359zM62.443 25.401l0.708-1.152 1.216 0.359-0.708 1.152-1.216-0.359zM65.221 26.222l3.609-5.891 4.699 1.388-0.571 0.925-3.574-1.056-0.942 1.541 3.172 0.937-0.569 0.915-3.172-0.937-0.965 1.584 3.629 1.072-0.571 0.925-4.744-1.401zM73.347 28.731c-0.475-0.14-0.892-0.379-1.249-0.717-0.355-0.344-0.594-0.712-0.717-1.106l0.996-0.411c0.284 0.654 0.737 1.072 1.358 1.256 0.439 0.13 0.837 0.115 1.196-0.044 0.364-0.157 0.597-0.407 0.698-0.748 0.086-0.293 0.041-0.564-0.137-0.816-0.172-0.249-0.462-0.434-0.869-0.555-0.33-0.097-0.703-0.111-1.121-0.043l-0.445-0.648 1.898-2.759 3.757 1.11-0.577 0.913-2.734-0.807-0.919 1.329c0.297-0.018 0.586 0.014 0.866 0.097 0.597 0.176 1.032 0.487 1.305 0.932 0.274 0.439 0.331 0.933 0.169 1.481-0.191 0.646-0.613 1.124-1.268 1.434s-1.391 0.345-2.207 0.104zM76.14 30.829l-0.159-0.942c1.077-0.146 1.957-0.479 2.641-0.999s1.134-1.149 1.352-1.887c0.261-0.884 0.112-1.859-0.448-2.925l0.894-0.501c0.835 1.234 1.068 2.475 0.699 3.725-0.29 0.981-0.868 1.784-1.736 2.41-0.861 0.627-1.942 1-3.243 1.119z"></path>
</symbol>
<symbol id="icon-logo" viewBox="0 0 107 32">
<path d="M106.667 0v32h-46.933v-32h46.933zM74.555 8.811v13.927c0 0.015 0 0.030 0.001 0.044 0.001 0.029 0.001 0.059-0.001 0.087-0.007 0.080 0.015 0.128 0.107 0.115 0.022-0.002 0.044-0.002 0.066-0.001l0.012 0c0.007 0 0.014 0 0.021 0 0.388 0 0.777 0 1.166 0h0.004c0.777 0 1.555 0.001 2.332-0 0.025 0 0.046 0 0.066 0v0c0.075 0.001 0.111 0.001 0.129-0.017s0.016-0.051 0.014-0.116c-0-0.022-0.001-0.048-0.001-0.078v-13.943c0-0.011-0-0.022-0.001-0.033-0.001-0.022-0.001-0.044 0.001-0.066 0.008-0.082-0.020-0.125-0.108-0.115-0.017 0.002-0.036 0.001-0.054 0.001v0c-0.009-0-0.019-0.001-0.028-0.001-0.392 0-0.785-0-1.178-0h-0c-0.786-0-1.572-0.001-2.357 0-0.023 0-0.044-0-0.062-0.001v0c-0.065-0.001-0.097-0.001-0.113 0.015s-0.016 0.049-0.015 0.116v0c0 0.019 0.001 0.040 0.001 0.064zM94.052 8.617h-5.839c-1.946 0-3.891 0-5.836-0.002-0.015 0-0.030 0-0.044 0h-0c-0.029 0-0.058 0.001-0.087-0-0.066-0.003-0.089 0.028-0.084 0.089 0.001 0.019 0.001 0.036 0 0.054v0c-0 0.009-0 0.018-0 0.028v3.335l-0 0.035v0c-0 0.072-0.001 0.107 0.017 0.124s0.051 0.016 0.117 0.016l0.045-0h3.668c0.12 0 0.179 0 0.208 0.030s0.029 0.086 0.029 0.2v10.282c0 0.020-0 0.037-0.001 0.053v0 0c-0.001 0.059-0.001 0.090 0.014 0.106 0.017 0.017 0.052 0.017 0.126 0.017h0l0.036-0h3.52c0.11 0 0.165 0 0.192-0.027s0.027-0.080 0.027-0.186v-10.282c0-0.022-0-0.042-0.001-0.059-0.001-0.064-0.001-0.097 0.015-0.114 0.018-0.018 0.055-0.018 0.133-0.018l0.049 0h3.734c0.161 0 0.161 0 0.163-0.159v-3.318c0-0.023 0-0.043 0.001-0.061 0.001-0.072 0.001-0.108-0.016-0.126s-0.052-0.017-0.122-0.016v0c-0.018 0-0.039 0.001-0.063 0.001z"></path>
<path d="M46.933 0l12.8 16-12.8 16h-46.933v-32h46.933zM20.752 13.662c0.071 0.058 0.143 0.116 0.215 0.174 0.048-0.029 0.078-0.069 0.106-0.107v0c0.006-0.009 0.013-0.018 0.020-0.026 0.254-0.302 0.507-0.606 0.76-0.91 0.507-0.606 1.012-1.212 1.518-1.82 0.101-0.122 0.097-0.177-0.018-0.276-0.091-0.079-0.183-0.156-0.277-0.233-0.803-0.657-1.685-1.17-2.684-1.467-0.667-0.197-1.349-0.306-2.043-0.353-0.905-0.061-1.802-0.031-2.691 0.174-3.112 0.716-5.434 3.292-5.707 6.594-0.073 0.89-0.003 1.772 0.225 2.638 0.519 1.96 1.645 3.461 3.434 4.45 0.975 0.539 2.030 0.823 3.14 0.912 0.94 0.076 1.87 0.018 2.788-0.189 1.553-0.35 2.925-1.056 4.146-2.067 0.098-0.080 0.137-0.161 0.137-0.289-0.004-1.572-0.004-3.145-0.003-4.717l0-1.179c0-0.020-0.001-0.041-0.003-0.062-0.003-0.046-0.006-0.092 0.006-0.134 0.015-0.049-0.012-0.077-0.037-0.104-0.021-0.022-0.042-0.044-0.039-0.077 0.007-0.054-0.030-0.062-0.073-0.062h-6.556c-0.013 0-0.025 0-0.038 0.001-0.026 0.001-0.052 0.002-0.077-0.001-0.066-0.007-0.087 0.026-0.083 0.087 0.002 0.025 0.002 0.051 0.001 0.077-0 0.013-0.001 0.025-0.001 0.038 0 0.345-0 0.69-0 1.035-0 0.69-0.001 1.38 0 2.070 0 0.028-0.001 0.053-0.001 0.074-0.001 0.063-0.002 0.096 0.014 0.112s0.052 0.017 0.125 0.016h0c0.018-0 0.039-0 0.062-0h2.593c0.023 0 0.043-0 0.061-0 0.072-0.001 0.107-0.001 0.124 0.016 0.016 0.016 0.015 0.048 0.014 0.11-0 0.022-0.001 0.048-0.001 0.078 0.001 0.15 0.001 0.299 0 0.449-0 0.075-0 0.15-0 0.225v0.005c0 0.308 0 0.311-0.279 0.445-0.818 0.391-1.681 0.503-2.573 0.391-0.991-0.123-1.784-0.591-2.365-1.401-0.378-0.527-0.585-1.122-0.662-1.763-0.097-0.818 0.002-1.605 0.373-2.348 0.448-0.892 1.125-1.533 2.098-1.827 0.682-0.207 1.373-0.153 2.056-0.003 0.619 0.135 1.159 0.437 1.657 0.816 0.182 0.138 0.359 0.281 0.539 0.427l0 0zM39.098 10.682c-1.528-1.39-3.348-2.052-5.229-2.066-0.869 0.002-1.518 0.072-2.207 0.251-1.998 0.521-3.563 1.638-4.602 3.422-1.067 1.83-1.283 3.793-0.687 5.812 0.667 2.257 2.089 3.9 4.29 4.815 1.69 0.701 3.44 0.795 5.206 0.332 2.051-0.537 3.624-1.725 4.654-3.578 0.869-1.562 1.102-3.238 0.778-4.987-0.291-1.572-1.017-2.919-2.203-4zM30.661 14.21c0.666-1.227 1.729-1.815 2.762-1.838 2.094-0.005 3.464 1.173 3.837 2.806 0.226 0.984 0.125 1.94-0.358 2.834-0.57 1.050-1.458 1.661-2.654 1.797-1.156 0.133-2.165-0.194-2.99-1.025-0.529-0.532-0.847-1.181-0.983-1.914-0.172-0.928-0.066-1.827 0.386-2.66z"></path>
</symbol>
<symbol id="icon-sumif" viewBox="0 0 263 32">
<path fill="#97c3ab" style="fill: var(--color5, #97c3ab)" d="M11.545 24.96c-3.837 0-7.191-1.287-10.063-3.86l2.55-3.033c2.412 2.091 4.951 3.136 7.616 3.136 1.31 0 2.343-0.276 3.102-0.827 0.781-0.574 1.172-1.332 1.172-2.274 0-0.896-0.368-1.608-1.103-2.137-0.735-0.551-2.183-1.080-4.342-1.585-2.803-0.666-4.848-1.505-6.134-2.516-1.264-1.034-1.895-2.608-1.895-4.721 0-2.068 0.77-3.745 2.309-5.031 1.539-1.31 3.515-1.964 5.927-1.964 3.308 0 6.226 1.011 8.753 3.033l-2.274 3.205c-2.229-1.654-4.411-2.481-6.548-2.481-1.218 0-2.183 0.276-2.895 0.827-0.689 0.551-1.034 1.252-1.034 2.102 0 0.942 0.379 1.677 1.137 2.206 0.781 0.505 2.309 1.034 4.583 1.585 2.665 0.643 4.618 1.505 5.858 2.585 1.264 1.080 1.895 2.596 1.895 4.549 0 2.229-0.793 3.986-2.378 5.273s-3.664 1.93-6.238 1.93zM35.035 24.994c-3.194 0-5.709-0.907-7.547-2.722-1.815-1.815-2.722-4.446-2.722-7.892v-13.888h4.239v13.716c0 2.206 0.54 3.906 1.62 5.1s2.573 1.792 4.48 1.792c1.907 0 3.389-0.574 4.446-1.723 1.080-1.149 1.62-2.814 1.62-4.997v-13.888h4.239v13.681c0 3.515-0.919 6.203-2.757 8.064-1.838 1.838-4.377 2.757-7.616 2.757zM51.227 24.615v-24.123h4.514l7.34 11.407 7.34-11.407h4.514v24.123h-4.239v-17.3l-7.616 11.372h-0.138l-7.547-11.303v17.231h-4.17zM81.386 24.615v-24.123h4.239v24.123h-4.239zM92.082 24.615v-24.123h17.954v3.86h-13.716v6.582h12.165v3.86h-12.165v9.822h-4.239zM123.313 29.474c-6.364-3.492-9.546-8.409-9.546-14.75s3.182-11.257 9.546-14.75l1.826 2.791c-2.481 1.631-4.308 3.4-5.479 5.307-1.149 1.907-1.723 4.124-1.723 6.651s0.575 4.744 1.723 6.651c1.172 1.907 2.998 3.676 5.479 5.307l-1.826 2.791zM140.032 25.029c-3.492 0-6.41-1.195-8.753-3.584-2.343-2.412-3.515-5.376-3.515-8.891 0-3.492 1.172-6.444 3.515-8.857s5.319-3.618 8.926-3.618c2.091 0 3.86 0.322 5.307 0.965 1.471 0.643 2.849 1.574 4.135 2.791l-2.722 3.136c-2.16-1.999-4.411-2.998-6.754-2.998-2.297 0-4.204 0.827-5.721 2.481-1.493 1.654-2.24 3.687-2.24 6.1 0 2.389 0.758 4.423 2.274 6.1 1.516 1.654 3.412 2.481 5.686 2.481 1.378 0 2.596-0.253 3.653-0.758 1.057-0.528 2.148-1.321 3.274-2.378l2.722 2.757c-1.355 1.424-2.791 2.493-4.308 3.205s-3.343 1.068-5.479 1.068zM161.891 25.029c-3.837 0-6.915-1.413-9.236-4.239l2.964-2.757c1.792 2.114 3.905 3.17 6.341 3.17 1.217 0 2.217-0.333 2.998-0.999 0.781-0.689 1.172-1.597 1.172-2.722 0-1.172-0.506-2.079-1.516-2.722-0.988-0.666-2.332-0.999-4.032-0.999h-1.964l-0.689-2.654 6.513-6.927h-10.442v-3.687h15.956v3.17l-6.72 6.892c2.113 0.299 3.825 1.011 5.135 2.137 1.31 1.103 1.964 2.676 1.964 4.721 0 2.229-0.793 4.055-2.378 5.479-1.562 1.424-3.584 2.137-6.065 2.137zM174.992 11.141v-4.721h4.583v4.721h-4.583zM174.992 24.615v-4.721h4.583v4.721h-4.583zM196.402 25.029c-3.492 0-6.41-1.195-8.753-3.584-2.343-2.412-3.515-5.376-3.515-8.891 0-3.492 1.172-6.444 3.515-8.857s5.319-3.618 8.926-3.618c2.091 0 3.86 0.322 5.307 0.965 1.47 0.643 2.849 1.574 4.135 2.791l-2.722 3.136c-2.16-1.999-4.411-2.998-6.754-2.998-2.297 0-4.204 0.827-5.721 2.481-1.493 1.654-2.24 3.687-2.24 6.1 0 2.389 0.758 4.423 2.274 6.1 1.516 1.654 3.412 2.481 5.686 2.481 1.378 0 2.596-0.253 3.653-0.758 1.057-0.528 2.148-1.321 3.274-2.378l2.722 2.757c-1.356 1.424-2.791 2.493-4.308 3.205s-3.343 1.068-5.479 1.068zM213.678 24.615v-19.988l-4.342 1.206-0.896-3.446 6.479-2.068h2.964v24.295h-4.204zM222.895 24.615v-3.343l8.305-7.065c1.7-1.424 2.872-2.596 3.515-3.515 0.666-0.942 0.999-1.941 0.999-2.998 0-1.149-0.368-2.056-1.103-2.722-0.735-0.689-1.665-1.034-2.791-1.034-1.057 0-2.010 0.287-2.86 0.862-0.827 0.574-1.734 1.493-2.722 2.757l-2.998-2.343c1.241-1.746 2.516-3.021 3.825-3.825 1.333-0.827 3.021-1.241 5.066-1.241 2.367 0 4.285 0.666 5.755 1.999s2.206 3.090 2.206 5.273c0 0.942-0.115 1.792-0.345 2.55-0.23 0.735-0.643 1.493-1.241 2.274-0.574 0.758-1.206 1.459-1.895 2.102-0.666 0.62-1.597 1.424-2.791 2.412l-4.962 4.135h11.476v3.722h-17.438zM243.961 29.612l-0.448-1.758c1.976-0.391 2.963-1.344 2.963-2.86 0-0.046-0.010-0.115-0.034-0.207 0-0.069 0-0.126 0-0.172h-1.757v-4.721h4.583v3.998c0 1.861-0.436 3.239-1.31 4.135-0.871 0.919-2.205 1.447-3.997 1.585zM252.007 10.245l-0.448-1.792c1.977-0.345 2.964-1.298 2.964-2.86 0-0.046-0.010-0.103-0.034-0.172 0-0.092 0-0.161 0-0.207h-1.758v-4.721h4.583v4.032c0 1.861-0.436 3.251-1.31 4.17-0.871 0.896-2.206 1.413-3.998 1.551zM261.263 10.245l-0.448-1.792c1.977-0.345 2.964-1.298 2.964-2.86 0-0.046-0.012-0.103-0.034-0.172 0-0.092 0-0.161 0-0.207h-1.758v-4.721h4.583v4.032c0 1.861-0.436 3.251-1.31 4.17-0.874 0.896-2.206 1.413-3.998 1.551zM271.931 21.962v-3.963l12.303-5.479-12.303-5.514v-3.998l16.438 7.616v3.722l-16.438 7.616zM294.422 24.615l10.821-20.401h-12.13v-3.722h16.955v3.205l-10.89 20.918h-4.756zM323.537 25.029c-3.126 0-5.652-1.183-7.582-3.55-1.93-2.389-2.895-5.364-2.895-8.926 0-3.515 0.975-6.467 2.929-8.857 1.974-2.412 4.514-3.618 7.616-3.618s5.617 1.195 7.547 3.584c1.952 2.389 2.929 5.353 2.929 8.891 0 3.515-0.99 6.479-2.964 8.891-1.954 2.389-4.48 3.584-7.582 3.584zM319.126 18.722c1.147 1.654 2.641 2.481 4.48 2.481 1.836 0 3.308-0.816 4.411-2.447 1.125-1.654 1.689-3.722 1.689-6.203 0-2.435-0.576-4.48-1.723-6.134-1.15-1.677-2.631-2.516-4.446-2.516-1.839 0-3.321 0.827-4.446 2.481-1.103 1.631-1.654 3.687-1.654 6.169 0 2.435 0.561 4.492 1.689 6.169zM336.98 29.612l-0.448-1.758c1.977-0.391 2.964-1.344 2.964-2.86 0-0.046-0.010-0.115-0.034-0.207 0-0.069 0-0.126 0-0.172h-1.758v-4.721h4.583v3.998c0 1.861-0.436 3.239-1.31 4.135-0.871 0.919-2.206 1.447-3.998 1.585zM356.384 25.029c-3.126 0-5.652-1.183-7.582-3.55-1.93-2.389-2.895-5.364-2.895-8.926 0-3.515 0.975-6.467 2.929-8.857 1.974-2.412 4.514-3.618 7.616-3.618s5.617 1.195 7.547 3.584c1.952 2.389 2.929 5.353 2.929 8.891 0 3.515-0.99 6.479-2.964 8.891-1.954 2.389-4.48 3.584-7.582 3.584zM351.973 18.722c1.147 1.654 2.641 2.481 4.48 2.481 1.836 0 3.308-0.816 4.411-2.447 1.125-1.654 1.689-3.722 1.689-6.203 0-2.435-0.576-4.48-1.723-6.134-1.15-1.677-2.631-2.516-4.446-2.516-1.839 0-3.321 0.827-4.446 2.481-1.103 1.631-1.654 3.687-1.654 6.169 0 2.435 0.561 4.492 1.689 6.169zM381.319 25.029c-3.124 0-5.652-1.183-7.582-3.55-1.93-2.389-2.895-5.364-2.895-8.926 0-3.515 0.977-6.467 2.929-8.857 1.977-2.412 4.514-3.618 7.616-3.618s5.617 1.195 7.547 3.584c1.954 2.389 2.929 5.353 2.929 8.891 0 3.515-0.987 6.479-2.964 8.891-1.952 2.389-4.48 3.584-7.582 3.584zM376.908 18.722c1.15 1.654 2.644 2.481 4.48 2.481 1.839 0 3.308-0.816 4.411-2.447 1.127-1.654 1.689-3.722 1.689-6.203 0-2.435-0.574-4.48-1.723-6.134-1.147-1.677-2.629-2.516-4.446-2.516-1.836 0-3.318 0.827-4.446 2.481-1.103 1.631-1.654 3.687-1.654 6.169 0 2.435 0.564 4.492 1.689 6.169zM406.257 25.029c-3.124 0-5.652-1.183-7.582-3.55-1.93-2.389-2.895-5.364-2.895-8.926 0-3.515 0.977-6.467 2.929-8.857 1.977-2.412 4.514-3.618 7.616-3.618s5.617 1.195 7.547 3.584c1.954 2.389 2.929 5.353 2.929 8.891 0 3.515-0.987 6.479-2.964 8.891-1.952 2.389-4.48 3.584-7.582 3.584zM401.846 18.722c1.15 1.654 2.644 2.481 4.48 2.481 1.839 0 3.308-0.816 4.411-2.447 1.127-1.654 1.689-3.722 1.689-6.203 0-2.435-0.574-4.48-1.723-6.134-1.147-1.677-2.629-2.516-4.446-2.516-1.836 0-3.318 0.827-4.446 2.481-1.103 1.631-1.654 3.687-1.654 6.169 0 2.435 0.564 4.492 1.689 6.169zM420.546 10.245l-0.448-1.792c1.977-0.345 2.964-1.298 2.964-2.86 0-0.046-0.012-0.103-0.034-0.172 0-0.092 0-0.161 0-0.207h-1.758v-4.721h4.583v4.032c0 1.861-0.436 3.251-1.31 4.17-0.874 0.896-2.206 1.413-3.998 1.551zM429.802 10.245l-0.448-1.792c1.977-0.345 2.964-1.298 2.964-2.86 0-0.046-0.012-0.103-0.034-0.172 0-0.092 0-0.161 0-0.207h-1.758v-4.721h4.583v4.032c0 1.861-0.436 3.251-1.31 4.17-0.874 0.896-2.206 1.413-3.998 1.551zM440.746 29.474l-1.826-2.791c2.481-1.631 4.295-3.4 5.445-5.307 1.172-1.907 1.758-4.124 1.758-6.651s-0.586-4.744-1.758-6.651c-1.15-1.907-2.964-3.676-5.445-5.307l1.826-2.791c6.363 3.515 9.546 8.432 9.546 14.75s-3.183 11.234-9.546 14.75z"></path>
</symbol>
<symbol id="icon-vector" viewBox="0 0 32 32">
<path fill="#0f7c41" style="fill: var(--color2, #0f7c41)" d="M32 17.625l-5.375 1.774c-4.023-11.030-14.572-19.070-26.465-19.399-0.41-0.012 0.083 4.238 0.126 4.582 0.065 0.485 0.413 4.45 1.038 4.468 8.612 0.239 17.243 4.873 22.408 11.723l-5.055 1.792 10.935 9.434 2.387-14.375z"></path>
</symbol>
</defs>
</svg>
